function data()
return { 
		subMeshes = {
			{ 
				indices = { 
					normal = { 
						count = 148176,
						offset = 869088,
					},
					position = { 
						count = 148176,
						offset = 572736,
					},
					tangent = { 
						count = 148176,
						offset = 1017264,
					},
					uv0 = { 
						count = 148176,
						offset = 720912,
					},
				},
			},
		},
		vertexAttr = { 
			normal = { 
				count = 85080,
				numComp = 3,
				offset = 236008,
			},
			position = { 
				count = 114840,
				numComp = 3,
				offset = 0,
			},
			tangent = { 
				count = 251648,
				numComp = 4,
				offset = 321088,
			},
			uv0 = { 
				count = 121168,
				numComp = 2,
				offset = 114840,
			},
		},
	}
end